<svg id="Layer_1" data-name="Layer 1" xmlns="http://www.w3.org/2000/svg" viewBox="0 0 260 180"><title>Flat Web Illustrations Pack - Scene 46</title><path d="M78.74,114.63c5.75,14.15,22.33,24.54,44,16s29,1.62,32.39,11,26.09,14.22,34.87-19.5-17.21-56.66-32.24-58.39-19.08,4.51-26.6,13.58S111.8,88.5,98,86,72.89,100.25,78.74,114.63Z" fill="#e2eaf2"/><path d="M113.18,119.87c.15,7.31-3.51,30.16-3.51,30.16s3.51,7.16,16.76,6.4S142,150,142,150s-1.22-13.1-1.37-17.52-.85-5.42.64-8,5.26-23.26,5.26-23.26l7.28-8.92s.87-3.57-1.92-3.88-7.78,3.88-10.91,7.23c0,0-3,0,1.32-4,5.69-5.25,10.49-5.39,10.65-11.19.15-5.42-6.81-1.62-10.18.37-1.5.89-2.59-.48,0-2.51s1.13-.89,3.93-4.08,3-6.47.85-7.85-5.66,3.13-8.76,6c-2.43,2.28.09,1.13,3.1-4s4.14-6.33,3.31-9.87-3.15-5.21-6.91,1.13-17.92,24-23.41,29S113.18,119.87,113.18,119.87Z" fill="#eaa88e"/><rect x="112.05" y="51.22" width="36.85" height="67.19" rx="2.98" transform="translate(-18.3 39.17) rotate(-15.97)" fill="#EB5757"/><path d="M135.36,46.59,106.08,55a4,4,0,0,0-2.76,5l17.21,60.13a4,4,0,0,0,5,2.76l29.28-8.38a4,4,0,0,0,2.76-5L140.34,49.36A4,4,0,0,0,135.36,46.59Zm20.17,62.18A3.66,3.66,0,0,1,153,113.3l-26.61,7.62a3.66,3.66,0,0,1-4.53-2.51L105.49,61.18A3.66,3.66,0,0,1,108,56.65l3.29-.95,1.78,1.35a3.52,3.52,0,0,0,3.12.59l12.52-3.58a3.53,3.53,0,0,0,2.34-2.16l.79-2.08,2.78-.79a3.67,3.67,0,0,1,4.53,2.51Z" fill="#0d1019"/><circle cx="114.93" cy="74.28" r="1.57" fill="#e2eaf2"/><circle cx="110.93" cy="60.31" r="1.75" fill="#fafafa"/><rect x="116.79" y="64.74" width="17.52" height="5.27" rx="2.63" transform="matrix(0.96, -0.28, 0.28, 0.96, -13.69, 37.15)" fill="#fafafa"/><polygon points="119.48 70.94 119.82 72.89 122.41 70.1 119.48 70.94" fill="#fafafa"/><path d="M120.63,70.2a.39.39,0,0,1-.11-.77l9.17-2.62a.39.39,0,0,1,.49.27.39.39,0,0,1-.27.48l-9.17,2.63Z" fill="#EB5757"/><circle cx="122.42" cy="100.44" r="1.57" fill="#fafafa"/><rect x="125.5" y="93.47" width="8.81" height="3.62" rx="1.81" transform="translate(-21.2 39.42) rotate(-15.97)" fill="#fafafa"/><polygon points="126.97 97.09 127.3 99.04 129.9 96.25 126.97 97.09" fill="#fafafa"/><path d="M127.41,96.93a.41.41,0,0,1-.38-.29.38.38,0,0,1,.27-.48l3.36-1a.39.39,0,0,1,.49.27.4.4,0,0,1-.27.49l-3.36,1Z" fill="#EB5757"/><path d="M138.45,108a2.21,2.21,0,0,1-2.12-1.61,2.17,2.17,0,0,1,.2-1.67,2.21,2.21,0,0,1,1.32-1l5-1.42a2.2,2.2,0,0,1,2.28,3.54l.39.95a.41.41,0,0,1-.07.41.38.38,0,0,1-.4.12l-1.93-.52-4.05,1.16A2.43,2.43,0,0,1,138.45,108Zm5-5a1.39,1.39,0,0,0-.4.06l-5,1.42a1.37,1.37,0,0,0-.84.67,1.41,1.41,0,0,0-.13,1.08,1.44,1.44,0,0,0,1.76,1L143,106a.41.41,0,0,1,.22,0l1.25.34-.18-.45a.41.41,0,0,1,.1-.44,1.41,1.41,0,0,0-.94-2.46Z" fill="#fafafa"/><path d="M140.18,106a.39.39,0,0,1-.11-.77l3.37-1a.39.39,0,0,1,.48.27.4.4,0,0,1-.27.49l-3.36,1Z" fill="#fafafa"/><path d="M125.21,85.21a3,3,0,0,1-.83-5.93l11.78-3.37a2.94,2.94,0,0,1,.84-.12,3,3,0,0,1,1.91,5.37l.35.83a.41.41,0,0,1-.07.41.4.4,0,0,1-.4.12L136.86,82l-10.81,3.09A2.94,2.94,0,0,1,125.21,85.21ZM137,76.58a2.57,2.57,0,0,0-.62.08L124.6,80a2.24,2.24,0,0,0-1.53,2.77,2.22,2.22,0,0,0,2.14,1.62,2.57,2.57,0,0,0,.62-.08l10.92-3.13a.37.37,0,0,1,.21,0l1.26.34-.15-.38a.38.38,0,0,1,.14-.48A2.24,2.24,0,0,0,137,76.58Z" fill="#fafafa"/><path d="M125.5,83.38a.38.38,0,0,1-.37-.28.4.4,0,0,1,.26-.49l.25-.07a.39.39,0,1,1,.22.75l-.25.08Z" fill="#fafafa"/><path d="M127.62,82.77a.39.39,0,0,1-.11-.77l.25-.07a.4.4,0,0,1,.49.27.39.39,0,0,1-.27.48l-.25.08Z" fill="#fafafa"/><path d="M129.8,82.16a.39.39,0,0,1-.11-.77l.25-.07a.39.39,0,0,1,.48.27.4.4,0,0,1-.27.49l-.25.07Z" fill="#fafafa"/><path d="M132,81.53a.39.39,0,0,1-.38-.28.4.4,0,0,1,.27-.49l.25-.07a.39.39,0,0,1,.48.27.4.4,0,0,1-.27.49l-.25.07Z" fill="#fafafa"/><path d="M134.45,80.77a.39.39,0,0,1-.11-.77l.25-.07a.39.39,0,0,1,.49.27.39.39,0,0,1-.27.48l-.25.08Z" fill="#fafafa"/><path d="M133,54.58a.75.75,0,0,0-.5-.14c-.08,0-.11.06-.13.12l-.06.08c0,.06-.25,0-.42-.08s-.32-.25-.29-.31a.3.3,0,0,1,0-.1.17.17,0,0,0,0-.17.75.75,0,0,0-.39-.35.32.32,0,0,0-.25,0,.17.17,0,0,0-.09.1.66.66,0,0,0,.14.66,1.91,1.91,0,0,0,.64.5,1.87,1.87,0,0,0,.76.27.69.69,0,0,0,.33,0,.61.61,0,0,0,.3-.21.12.12,0,0,0,0-.12A.32.32,0,0,0,133,54.58Z" fill="#fafafa"/><rect x="133.85" y="52.55" width="2.09" height="1.87" rx="0.48" transform="translate(-9.51 39.18) rotate(-15.97)" fill="#fafafa"/><polygon points="136.96 53.47 136.22 53.42 136.04 52.81 136.65 52.37 136.96 53.47" fill="#fafafa"/><circle cx="137.9" cy="52.62" r="0.4" fill="#fafafa"/><rect x="135.52" y="111.64" width="15.54" height="3.2" rx="1.35" transform="translate(-25.63 43.8) rotate(-15.97)" fill="#fafafa"/><circle cx="148.96" cy="111.62" r="0.88" fill="#EB5757"/><circle cx="125.87" cy="118.23" r="1.57" fill="#fafafa"/><rect x="124.86" y="117.99" width="1.98" height="0.49" transform="translate(-27.67 39.19) rotate(-15.97)" fill="#EB5757"/><rect x="125.61" y="117.24" width="0.49" height="1.98" transform="translate(-27.67 39.19) rotate(-15.97)" fill="#EB5757"/><rect x="128.01" y="115.57" width="4.01" height="3.05" transform="translate(-27.2 40.29) rotate(-15.97)" fill="#fafafa"/><path d="M129,118.26l2.72-.78a1.52,1.52,0,0,0-1.37-.77C129.43,116.82,129,118.26,129,118.26Z" fill="#EB5757"/><circle cx="129.09" cy="116.73" r="0.33" fill="#EB5757"/><path d="M133,116.39l-.08-.3-.25.07-.06-.23.24-.07-.09-.3-.24.07,0-.08a.71.71,0,0,1,.49-.89.72.72,0,0,1,.89.49l.28,1a.73.73,0,0,1-.5.89.72.72,0,0,1-.89-.5v0Z" fill="#fafafa"/><path d="M134.18,117.12l-.45.13h0l-.45.13a.36.36,0,0,0-.24.43l.78-.22h0l.78-.22A.36.36,0,0,0,134.18,117.12Z" fill="#fafafa"/><rect x="133.53" y="116.74" width="0.31" height="0.69" transform="translate(-27.06 41.3) rotate(-15.97)" fill="#fafafa"/><path d="M154.63,110c.06.38-.23,1-1.13,1.31a1.32,1.32,0,0,1-1.64-.51A9.89,9.89,0,0,0,154.63,110Z" fill="#fafafa"/><path d="M151.83,110.52c.08-.48.5-1.15,1.2-.82.42-.73,1.15-.32,1.45.06A9.7,9.7,0,0,1,151.83,110.52Z" fill="#fafafa"/><path d="M114.85,71.28A141.31,141.31,0,0,0,108.15,87c-1.37,3.8.3,12.18,1.22,16.14s3.2,14.93,3.81,16.76,4.87,7.92,16.14,2.44l-3.35-2s.46-6.25-2.13-10.51-5.36-8.69-5.36-8.69-1-8.07-1.65-10,.4-2.13,1.65-7.16S118.05,72.34,114.85,71.28Z" fill="#eaa88e"/><path d="M137.24,66.4c2.14,1.81,4.27.92,6.71-2.13s2.43-6.4,1.52-7.92a6.48,6.48,0,0,0-2.89-2.29,22.69,22.69,0,0,0-3.66,4.57C137.4,61.22,135.26,64.73,137.24,66.4Z" fill="#eaa88e"/><path d="M137.34,75.59a1.58,1.58,0,0,0,.62,1.78c2.2,1.47,5.3.24,7.7-2.16,2.74-2.74,3.47-3.48,3.16-6.07S147,65.34,145,66.71a42.16,42.16,0,0,0-5.9,5.76A8.57,8.57,0,0,0,137.34,75.59Z" fill="#eaa88e"/><path d="M144.29,93.4c1,2.9,4.15,1.54,6.05.83s5.15-1.77,4.7-4.86-4-1.6-5.84-.9S143.29,90.36,144.29,93.4Z" fill="#eaa88e"/><path d="M140.33,83.63c.65,2.58,3.86,2.86,7.1,1.77s6.45-2.31,5.77-5.59-4.13-3-7.46-1.17S139.47,80.22,140.33,83.63Z" fill="#eaa88e"/><path d="M129.56,29.92a6.41,6.41,0,0,0-6.41-6.41H106.72a6.41,6.41,0,1,0,0,12.82H120.2L127,42.91a.16.16,0,0,0,.26-.15l-1.57-6.94A6.4,6.4,0,0,0,129.56,29.92Z" fill="#EB5757"/><path d="M116.61,28.85H105.35a1,1,0,0,1,0-2h11.26a1,1,0,1,1,0,2Z" fill="#fafafa"/><path d="M124.85,33h-19.5a.67.67,0,0,1,0-1.34h19.5a.67.67,0,1,1,0,1.34Z" fill="#fafafa"/><path d="M182.88,29.72H159.32a9.19,9.19,0,0,0-3.75,17.57L153.39,57a.15.15,0,0,0,.26.14l9.27-9h20a9.19,9.19,0,0,0,0-18.38Z" fill="#0a0d16"/><circle cx="183.29" cy="38.91" r="3.5" fill="#EB5757"/><circle cx="158.91" cy="38.91" r="3.5" fill="#fafafa"/><circle cx="171.1" cy="38.91" r="3.5" fill="#EB5757"/><path d="M93.71,62.77A6.38,6.38,0,0,0,88.9,51.14l-16,3.6a6.39,6.39,0,0,0,2.81,12.47l13.22-3,7,4.25a.26.26,0,0,0,.37-.34Z" fill="#e2eaf2"/><circle cx="90.58" cy="57.31" r="2.44" fill="#EB5757"/><circle cx="82.32" cy="59.17" r="2.44" fill="#EB5757"/><circle cx="74.05" cy="61.04" r="2.44" fill="#0d1019"/></svg>