<svg id="Layer_1" data-name="Layer 1" xmlns="http://www.w3.org/2000/svg" viewBox="0 0 260 180"><title>Flat Web Illustrations Pack - Scene 20</title><path d="M153.47,55.3c-24.77-6.59-49.51-3.76-61.39,0S76.88,77.74,78.22,91.55c1.19,12.29,2,37.22,21.78,39,12.64,1.15,35.27.91,52.68-.27v11.45a1.66,1.66,0,0,0,3.19.65l5.46-12.8a76.13,76.13,0,0,0,13.13-2.1c10.3-3.25,11.48-19.32,12.28-31.68S187.69,64.41,153.47,55.3Z" fill="#EB5757"/><path d="M122.89,139.67H73.06s-13.39.75-14.33-5.16c-.57-3.59,3.44-4.23,7.17-8.56s-2.3-7.2-9.46-7.77-12-5.16-2.87-12,14.33-11.26,6.59-20.1-18.81-19-5.73-23.51c11.63-4,22.69,22.4,25.67,31.86s9.76,7.16,14.54-1.72,16.53-12,16.53,2.58-9.58,25.5,6.1,26.93,17.26,5.64,14.43,12.32C129.52,139.67,122.89,139.67,122.89,139.67Z" fill="#0d1019"/><path d="M150.7,78.27a18.42,18.42,0,1,0-36.84,0c0,.22,0,.44,0,.65-.09,1.85.06,7.44,4.41,14.2a30.06,30.06,0,0,1,4.16,11.69h19.73a30.06,30.06,0,0,1,4.16-11.69C151.69,84.81,150.7,78.27,150.7,78.27Z" fill="#fafafa"/><path d="M134.55,110.33h-4.46a.79.79,0,0,1-.75-.57l-7.74-28.7a4.14,4.14,0,0,1-.53-2,.77.77,0,0,1,.67-.76.78.78,0,0,1,.84.56l.44,1.66a2.73,2.73,0,0,0,5-1.46.77.77,0,0,1,1.53,0A2.73,2.73,0,1,0,135,79a.77.77,0,0,1,1.54,0,2.73,2.73,0,0,0,5,1.46l.44-1.66a.78.78,0,0,1,.85-.56.77.77,0,0,1,.66.76,4.24,4.24,0,0,1-.52,2l-7.75,28.7A.78.78,0,0,1,134.55,110.33Zm-3.88-1.54H134l7-25.84a4.29,4.29,0,0,1-5.13-1.5,4.27,4.27,0,0,1-7,0,4.29,4.29,0,0,1-5.13,1.5Z" fill="#EB5757"/><path d="M145.09,103.42H119.54a12.26,12.26,0,0,0,6.4,10.77,9.94,9.94,0,0,1,3.65,3.31l0,.07a4.46,4.46,0,0,0,5.37,0l0-.07a10,10,0,0,1,3.65-3.31A12.26,12.26,0,0,0,145.09,103.42Z" fill="#0d1019"/><path d="M78.44,97.73l-5.66-5.66-5.66,5.66A.75.75,0,0,0,67.65,99h3.17v5h3.92V99H77.9A.75.75,0,0,0,78.44,97.73Z" fill="#e2eaf2"/><path d="M96.16,112.45l-5.66-5.66-5.66,5.66a.76.76,0,0,0,.54,1.29h3.16v5h3.92v-5h3.17A.75.75,0,0,0,96.16,112.45Z" fill="#e2eaf2"/><path d="M96.16,81.74,90.5,76.08l-5.66,5.66A.76.76,0,0,0,85.38,83h3.16v5h3.92V83h3.17A.75.75,0,0,0,96.16,81.74Z" fill="#e2eaf2"/><path d="M211.62,52.38a24.57,24.57,0,0,0-3.87-6.67l-10.84,1.17-4.39-10a23.88,23.88,0,0,0-7.67,0l-4.42,10-10.84-1.17a23.56,23.56,0,0,0-3.83,6.7l6.42,8.75-6.42,8.78a23.41,23.41,0,0,0,3.86,6.7l10.81-1.19,4.42,10a24.66,24.66,0,0,0,7.67,0l4.39-10,10.81,1.19a23.68,23.68,0,0,0,3.87-6.7l-6.42-8.78ZM188.69,71.92a10.76,10.76,0,1,1,10.75-10.76A10.75,10.75,0,0,1,188.69,71.92Z" fill="#0d1019"/><circle cx="188.69" cy="61.16" r="5.55" fill="#e2eaf2"/></svg>