<svg id="Layer_1" data-name="Layer 1" xmlns="http://www.w3.org/2000/svg" viewBox="0 0 260 180"><title>Flat Web Illustrations Pack - Scene 32</title><path d="M134.34,40.93c9.22-4,22.17-.66,28.74,8.38s4.43,16.09,6.4,23.15,7.39,10,13.63,13.47,5.59,14.78,4.27,21.35,1,7.88,4.76,9.69,8.71,7.22,7.56,11.82-1.31,6.08,2,7.72,1.48,4.11,1.48,4.11H107.89s-8.37-6.57,0-23.32,15.61-23.49,10.52-35.48S110.69,51.28,134.34,40.93Z" fill="#0d1019"/><path d="M154.32,70.36c3.21-1.76,4.3,2.26,4.3,2.26.18,6.28-4.88,7.13-4.88,7.13L153,98.14c-7.27,4.1-13,.53-13,.53l.24-6.06C124.43,90.73,125,80.92,126.11,69.45c.45-4.77.32-5.31,1-8.43,0,0,1.86-1.66,15.07,5.84C150.56,71.64,154.32,70.36,154.32,70.36Z" fill="#eaa88e"/><path d="M167.31,120.9c5.18,6.59,11.44,14.43,14.7,17.53s12.29,1.94,8.16-6.91c-3.16-6.75-7.07-11.51-13.52-18.94-5.28-6.08-9-8.68-12.18-6.67C162.4,107.23,160.85,112.69,167.31,120.9Z" fill="#d78a69"/><path d="M133.44,117.61c-3.56,7.58-7.89,16.64-10.36,20.4s-11.54,4.66-9.51-4.89c1.55-7.3,4.29-12.82,8.9-21.51,3.77-7.11,6.94-7.87,10.46-6.63C135.25,105.81,137.88,108.15,133.44,117.61Z" fill="#d78a69"/><path d="M153,98.14c9.41,1.42,20.25,8.32,25.5,15.38,0,0-1,5.09-9.69,9.69l-1.47,17.41H130.07l-3.29-17.25s-5.91-2-8.21-5.42c0,0,6.78-17.8,21.46-19.54C140,98.41,145.3,101.57,153,98.14Z" fill="#e2eaf2"/><path d="M125.63,139.76a7.35,7.35,0,0,0,3.66-3.9s3,3.81,4.64,3.32-.13-4.19-2.84-6.65-4.43-2.83-9.85-3.08c-5.67,1.11-6.65,5.16-6.65,5.16s-1.65,4.41.65,5.38c3.87,1.63,7.29-1.3,7.29-1.3Z" fill="#eaa88e"/><path d="M150.18,129.45c-5.42.25-7.14.62-9.85,3.08s-4.43,6.16-2.83,6.65,4.63-3.32,4.63-3.32a26.46,26.46,0,0,0,5.1,3.36c2.83,1.4,4.74-.16,6.68-1.89s2.93-2.72,2.93-2.72S155.85,130.56,150.18,129.45Z" fill="#eaa88e"/><path d="M149.19,129.5c8.67-1.13,9.57-1.75,16.14-1.65a120.16,120.16,0,0,1,17.62,1.6c5.55.88,9.69,5.33,7.93,8.38s-5.92,4.21-19.11,1-17.39-4.24-17.39-4.24S149.08,134.3,149.19,129.5Z" fill="#eaa88e"/><rect x="148.71" y="66.02" width="11.95" height="3.08" rx="1.54" transform="translate(18.84 167.73) rotate(-60)" fill="#EB5757"/><rect x="144.07" y="63.34" width="11.95" height="3.08" rx="1.54" transform="translate(18.84 162.38) rotate(-60)" fill="#e2eaf2"/><path d="M134.77,140.62H84.35l-7.91-36.46a.82.82,0,0,1,.8-1h48.54a1.07,1.07,0,0,1,1,.84Z" fill="#EB5757"/><path d="M91.21,140.62h60.48v-1.25a.67.67,0,0,0-.68-.68H91.21Z" fill="#EB5757"/><path d="M89.69,90.39a8.05,8.05,0,0,0-8-8H70.55a8,8,0,0,0,0,16.1h8a8.21,8.21,0,0,0,2,2.1,6.84,6.84,0,0,0,2.58,1.19,7.26,7.26,0,0,0,1.28.17,12.07,12.07,0,0,0,1.22-.05.16.16,0,0,0,.12-.06.17.17,0,0,0,0-.25l0,0c-.3-.26-.59-.48-.84-.74a5.44,5.44,0,0,1-.65-.82,3.77,3.77,0,0,1-.63-1.7V98.2A8,8,0,0,0,89.69,90.39Z" fill="#e2eaf2"/><circle cx="75.92" cy="90.39" r="5.22" fill="#EB5757"/><path d="M75.92,94.4A3.88,3.88,0,0,1,72.18,91a.37.37,0,0,1,.32-.42.38.38,0,0,1,.42.32,3,3,0,0,0,6,0,.38.38,0,0,1,.43-.32.37.37,0,0,1,.31.42A3.87,3.87,0,0,1,75.92,94.4Z" fill="#fafafa"/><ellipse cx="73.89" cy="88.56" rx="0.77" ry="1.26" fill="#fafafa"/><ellipse cx="77.99" cy="88.56" rx="0.77" ry="1.26" fill="#fafafa"/><path d="M110.26,65.78h-9.32a6.76,6.76,0,0,0-6.76,6.76h0a6.75,6.75,0,0,0,6.18,6.73,3.18,3.18,0,0,1-.5,1.29,4.89,4.89,0,0,1-.55.69c-.21.22-.46.4-.71.62h0a.15.15,0,0,0,0,.21.12.12,0,0,0,.1.06c.33,0,.68,0,1,0a6.88,6.88,0,0,0,1.07-.15,5.57,5.57,0,0,0,2.16-1,7,7,0,0,0,1.65-1.74h5.68A6.76,6.76,0,0,0,117,72.54h0A6.76,6.76,0,0,0,110.26,65.78Z" fill="#EB5757"/><circle cx="105.75" cy="72.54" r="4.58" fill="#fafafa"/><path d="M105.75,75.61a2,2,0,0,1-1.72-1,.36.36,0,1,1,.61-.39,1.28,1.28,0,0,0,2.21,0,.36.36,0,1,1,.61.39A2.05,2.05,0,0,1,105.75,75.61Z" fill="#EB5757"/><path d="M105.08,71.17a.7.7,0,0,1-.2.49l-.07.06-1,.82-1-.82-.06-.06a.68.68,0,0,1,0-.91.68.68,0,0,1,1-.12l.2.16.19-.16a.7.7,0,0,1,1.12.54Z" fill="#EB5757"/><path d="M109,71.17a.7.7,0,0,1-.2.49l-.07.06-1,.82-1-.82-.06-.06a.68.68,0,0,1-.05-.91.68.68,0,0,1,1-.12l.2.16.19-.16a.7.7,0,0,1,1.12.54Z" fill="#EB5757"/><path d="M90.35,63.29h0a.69.69,0,0,1-.44.63,5.17,5.17,0,0,0-3,3,.67.67,0,0,1-.63.44h0a.69.69,0,0,1-.63-.44,5.11,5.11,0,0,0-3-3,.69.69,0,0,1-.44-.63h0a.68.68,0,0,1,.44-.63,5.14,5.14,0,0,0,3-3,.69.69,0,0,1,.63-.44h0a.67.67,0,0,1,.63.44,5.2,5.2,0,0,0,3,3A.68.68,0,0,1,90.35,63.29Z" fill="#e2eaf2"/><path d="M92.84,53.6h0a.54.54,0,0,1-.35.51,4.18,4.18,0,0,0-2.42,2.42.54.54,0,0,1-.51.35h0a.56.56,0,0,1-.51-.35,4.14,4.14,0,0,0-2.41-2.42.54.54,0,0,1-.35-.51h0a.54.54,0,0,1,.35-.5,4.14,4.14,0,0,0,2.41-2.42.56.56,0,0,1,.51-.35h0a.54.54,0,0,1,.51.35,4.18,4.18,0,0,0,2.42,2.42A.54.54,0,0,1,92.84,53.6Z" fill="#e2eaf2"/><path d="M97.15,59.23h0a.39.39,0,0,1-.25.36,3,3,0,0,0-1.73,1.73.39.39,0,0,1-.36.25h0a.39.39,0,0,1-.37-.25,3,3,0,0,0-1.72-1.73.4.4,0,0,1-.26-.36h0a.4.4,0,0,1,.26-.37,3,3,0,0,0,1.72-1.72.4.4,0,0,1,.37-.26h0a.4.4,0,0,1,.36.26,3,3,0,0,0,1.73,1.72A.39.39,0,0,1,97.15,59.23Z" fill="#e2eaf2"/><path d="M79.19,64.56a6.76,6.76,0,0,0-6.76-6.76H63.12a6.76,6.76,0,0,0,0,13.52h6a6.44,6.44,0,0,0,1.32,1.29,5.57,5.57,0,0,0,2.16,1,5.81,5.81,0,0,0,1.08.14,8.53,8.53,0,0,0,1,0,.16.16,0,0,0,.11,0,.16.16,0,0,0,0-.21l0,0a8.75,8.75,0,0,1-.71-.62,4.24,4.24,0,0,1-.54-.68,3.07,3.07,0,0,1-.4-.84A6.77,6.77,0,0,0,79.19,64.56Z" fill="#0d1019"/><circle cx="73.11" cy="64.56" r="1.54" fill="#EB5757"/><circle cx="62.44" cy="64.56" r="1.54" fill="#fafafa"/><circle cx="67.78" cy="64.56" r="1.54" fill="#EB5757"/></svg>