<svg id="Layer_1" data-name="Layer 1" xmlns="http://www.w3.org/2000/svg" viewBox="0 0 260 180"><title>Flat Web Illustrations Pack - Scene 11</title><circle cx="51.56" cy="34.85" r="2" fill="#e2eaf2"/><circle cx="45.41" cy="41" r="2" fill="#e2eaf2"/><circle cx="39.26" cy="47.15" r="2" fill="#e2eaf2"/><circle cx="57.46" cy="40.75" r="2" fill="#e2eaf2"/><circle cx="51.31" cy="46.9" r="2" fill="#e2eaf2"/><circle cx="45.16" cy="53.05" r="2" fill="#e2eaf2"/><circle cx="63.36" cy="46.65" r="2" fill="#e2eaf2"/><circle cx="57.21" cy="52.8" r="2" fill="#e2eaf2"/><path d="M200.15,132.88c-.68,0-1.37,0-2.06-.09l.34-3.8a20.1,20.1,0,0,0,3.47,0l.35,3.8Q201.22,132.88,200.15,132.88ZM194,132a22.16,22.16,0,0,1-3.89-1.5l1.7-3.41a18.88,18.88,0,0,0,3.23,1.24Zm12.36,0-1-3.67a19.34,19.34,0,0,0,3.22-1.25l1.71,3.41A22.38,22.38,0,0,1,206.35,132Zm-19.79-3.68a22.12,22.12,0,0,1-3.08-2.8l2.81-2.58a18.33,18.33,0,0,0,2.57,2.33Zm27.22,0-2.31-3a18.9,18.9,0,0,0,2.56-2.34l2.82,2.57A22.06,22.06,0,0,1,213.78,128.31ZM181,122.22a22,22,0,0,1-1.87-3.73l3.56-1.39a18.69,18.69,0,0,0,1.55,3.1Zm38.4,0-3.24-2a18.69,18.69,0,0,0,1.55-3.1l3.56,1.38A22.81,22.81,0,0,1,219.36,122.18Zm-41.42-7.7a22.85,22.85,0,0,1-.38-4.14h3.81a18.09,18.09,0,0,0,.33,3.45Zm44.42,0-3.75-.7a18.93,18.93,0,0,0,.32-3.45l3.81-.09v.09A22.1,22.1,0,0,1,222.36,114.44Zm-40.68-7.56-3.75-.69a22.1,22.1,0,0,1,1.13-4l3.56,1.37A18.09,18.09,0,0,0,181.68,106.88Zm36.92-.12a19.11,19.11,0,0,0-1-3.32l3.55-1.4a22.19,22.19,0,0,1,1.16,4Zm-34.44-6.32-3.25-2a23.17,23.17,0,0,1,2.5-3.33l2.83,2.57A18,18,0,0,0,184.16,100.44Zm31.92-.09a18.77,18.77,0,0,0-2.1-2.76L216.79,95a23.19,23.19,0,0,1,2.53,3.31Zm-27.29-5-2.31-3a22.71,22.71,0,0,1,3.54-2.2l1.71,3.41A18.26,18.26,0,0,0,188.79,95.33Zm22.62-.07a19,19,0,0,0-2.95-1.81L210.15,90a23,23,0,0,1,3.55,2.19Zm-16.45-3-1.06-3.67a22.64,22.64,0,0,1,4.1-.77l.36,3.8A18.54,18.54,0,0,0,195,92.24Zm10.27,0a18.77,18.77,0,0,0-3.41-.62l.34-3.81a23.85,23.85,0,0,1,4.1.75Z" fill="#e2eaf2"/><path d="M58.86,50.61H195.55A3.45,3.45,0,0,1,199,54.06v92.26a0,0,0,0,1,0,0H55.41a0,0,0,0,1,0,0V54.06A3.45,3.45,0,0,1,58.86,50.61Z" fill="#0d1019"/><rect x="83.98" y="66.15" width="88.3" height="74.62" fill="#e2eaf2"/><path d="M86.26,61.84H170a2.28,2.28,0,0,1,2.28,2.28v2a0,0,0,0,1,0,0H84a0,0,0,0,1,0,0v-2A2.28,2.28,0,0,1,86.26,61.84Z" fill="#EB5757"/><circle cx="86.53" cy="63.99" r="0.59" fill="#fafafa"/><circle cx="89.05" cy="63.99" r="0.59" fill="#fafafa"/><circle cx="91.57" cy="63.99" r="0.59" fill="#fafafa"/><rect x="101.25" y="77.44" width="52.74" height="52.74" fill="#fafafa"/><path d="M45.16,140.77H211.11a0,0,0,0,1,0,0v0a6.39,6.39,0,0,1-6.39,6.39H51.55a6.39,6.39,0,0,1-6.39-6.39v0a0,0,0,0,1,0,0Z" fill="#EB5757"/><rect x="68.56" y="73.75" width="23.59" height="67.01" fill="#fafafa"/><path d="M71.14,71.31H89.56a2.59,2.59,0,0,1,2.59,2.59V76.2a0,0,0,0,1,0,0H68.56a0,0,0,0,1,0,0V73.89A2.59,2.59,0,0,1,71.14,71.31Z" fill="#EB5757"/><rect x="71.17" y="78.86" width="7.68" height="7.68" fill="#e2eaf2"/><rect x="81.63" y="78.86" width="7.68" height="7.68" fill="#e2eaf2"/><rect x="71.17" y="88.04" width="7.68" height="7.68" fill="#e2eaf2"/><rect x="81.63" y="88.04" width="7.68" height="7.68" fill="#e2eaf2"/><rect x="71.17" y="97.23" width="7.68" height="7.68" fill="#e2eaf2"/><rect x="81.63" y="97.23" width="7.68" height="7.68" fill="#e2eaf2"/><rect x="71.17" y="106.42" width="7.68" height="7.68" fill="#e2eaf2"/><rect x="81.63" y="106.42" width="7.68" height="7.68" fill="#e2eaf2"/><rect x="71.17" y="115.61" width="7.68" height="7.68" fill="#e2eaf2"/><rect x="81.63" y="115.61" width="7.68" height="7.68" fill="#e2eaf2"/><rect x="72.79" y="130.18" width="7.68" height="7.68" fill="#EB5757"/><path d="M78.63,134v6.75h2.08v-4.66h5.12v4.66h2.08V134Z" fill="#EB5757"/><circle cx="89.31" cy="73.97" r="0.67" fill="#fafafa"/><path d="M160.07,71.31h24.42a2.59,2.59,0,0,1,2.59,2.59V76.2a0,0,0,0,1,0,0h-29.6a0,0,0,0,1,0,0V73.89A2.59,2.59,0,0,1,160.07,71.31Z" fill="#EB5757"/><path d="M157.48,76.2h29.6a0,0,0,0,1,0,0V90.05a1.72,1.72,0,0,1-1.72,1.72H159.21a1.72,1.72,0,0,1-1.72-1.72V76.2A0,0,0,0,1,157.48,76.2Z" fill="#fafafa"/><circle cx="184.19" cy="73.97" r="0.67" fill="#fafafa"/><path d="M160.07,98.92h24.42a2.59,2.59,0,0,1,2.59,2.59v2.31a0,0,0,0,1,0,0h-29.6a0,0,0,0,1,0,0v-2.31A2.59,2.59,0,0,1,160.07,98.92Z" fill="#EB5757"/><path d="M157.48,103.82h29.6a0,0,0,0,1,0,0v13.85a1.72,1.72,0,0,1-1.72,1.72H159.21a1.72,1.72,0,0,1-1.72-1.72V103.82A0,0,0,0,1,157.48,103.82Z" fill="#fafafa"/><circle cx="184.19" cy="101.37" r="0.67" fill="#fafafa"/><path d="M136.16,93.3c1.64,1.1.89,3.68-1.78,5.57a27.26,27.26,0,0,0-5.45,5.46c-.89,1.11-1.22-2.9,0-6.35S133.83,91.74,136.16,93.3Z" fill="#EB5757"/><path d="M125.54,106.52c1.28-3.42,1.42-5.84,0-8.17s-5.18-2.17-4.09,1.08,1.63,3.09,2.44,6.34S125.1,107.67,125.54,106.52Z" fill="#EB5757"/><path d="M123.25,112.63c.6-3.61.27-6-1.57-8s-5.49-1.14-3.8,1.85,2.19,2.72,3.61,5.75S123.05,113.84,123.25,112.63Z" fill="#EB5757"/><path d="M128,107.88c2-3.07,3.86-4.61,6.58-4.86s4.82,2.87,1.56,3.93-3.46.53-6.56,1.81S127.33,108.91,128,107.88Z" fill="#EB5757"/><path d="M125.64,113.35c2.35-2.8,4.39-4.1,7.12-4s4.44,3.44,1.07,4.1-3.49.09-6.72,1S124.85,114.3,125.64,113.35Z" fill="#EB5757"/><path d="M195.49,109.09c-.37,0-.72,0-1.05-.06h-.16a.86.86,0,1,1,.14-1.72h.17a6.06,6.06,0,0,0,5.49-2.27,7.18,7.18,0,0,1,3.1-2.32,7.42,7.42,0,0,1,2.14-.57.85.85,0,0,1,.94.77.87.87,0,0,1-.77,1,5.73,5.73,0,0,0-1.65.44,5.52,5.52,0,0,0-2.44,1.85,7.14,7.14,0,0,1-3.09,2.32A7.06,7.06,0,0,1,195.49,109.09Z" fill="#e2eaf2"/><path d="M197.44,113.76c-.38,0-.72,0-1.05-.06h-.17a.86.86,0,0,1,.15-1.72l.17,0a5.58,5.58,0,0,0,3.05-.43,5.5,5.5,0,0,0,2.44-1.84,7.22,7.22,0,0,1,3.09-2.33,7.91,7.91,0,0,1,2.15-.57.86.86,0,1,1,.16,1.72,5.62,5.62,0,0,0-1.65.45,5.5,5.5,0,0,0-2.44,1.84,7.8,7.8,0,0,1-5.9,2.93Z" fill="#e2eaf2"/><path d="M199.39,118.44c-.38,0-.73,0-1.06,0l-.16,0a.86.86,0,1,1,.15-1.72l.16,0A6.1,6.1,0,0,0,204,114.4a7.25,7.25,0,0,1,3.1-2.32,7.46,7.46,0,0,1,2.14-.58.88.88,0,0,1,.95.78.87.87,0,0,1-.78.94,5.77,5.77,0,0,0-1.65.45,5.51,5.51,0,0,0-2.44,1.84,7.8,7.8,0,0,1-5.9,2.93Z" fill="#e2eaf2"/></svg>