<svg id="Layer_1" data-name="Layer 1" xmlns="http://www.w3.org/2000/svg" viewBox="0 0 260 180"><title>Flat Web Illustrations Pack - Scene 25</title><path d="M103.94,142.79a58.41,58.41,0,1,1,68.73-.61Z" fill="#0d1019"/><polygon points="179 142.17 96.78 142.17 121.13 72.27 154.65 72.27 179 142.17" fill="#fafafa"/><path d="M150.58,141.17c0-2.21,7.49-4,16.73-4S184,139,184,141.17Z" fill="#EB5757"/><path d="M155,72.27a12,12,0,0,0-8-14.61,31.84,31.84,0,0,0-9.06-1.34h0a31.91,31.91,0,0,0-9.07,1.34,12,12,0,0,0-8,14.61Z" fill="#EB5757"/><path d="M168.31,139.17h-2V58a13.71,13.71,0,1,0-27.42,0v8.82h-2V58a15.71,15.71,0,0,1,31.42,0Z" fill="#EB5757"/><rect x="73.73" y="115.58" width="31.41" height="25.81" fill="#EB5757"/><polygon points="68.83 106.32 100.24 106.32 105.14 115.58 73.73 115.58 68.83 106.32" fill="#EB5757"/><rect x="103.86" y="115.58" width="15.7" height="25.81" transform="translate(223.42 256.97) rotate(-180)" fill="#0d1019"/><polygon points="124.47 106.32 108.76 106.32 103.86 115.58 119.56 115.58 124.47 106.32" fill="#EB5757"/><polygon points="87.77 106.25 90.37 112.78 90.22 113.04 89.37 112.41 89 113.04 88.15 112.41 87.79 113.04 86.93 112.41 86.57 113.04 85.71 112.41 85.36 113.04 84.95 112.74 82.36 106.25 87.77 106.25" fill="#e2eaf2"/><polygon points="114.31 106.25 111.71 112.78 111.86 113.04 112.72 112.41 113.08 113.04 113.94 112.41 114.3 113.04 115.15 112.41 115.52 113.04 116.37 112.41 116.73 113.04 117.14 112.74 119.72 106.25 114.31 106.25" fill="#e2eaf2"/><rect x="113.21" y="123.95" width="19.31" height="18.34" fill="#EB5757"/><polygon points="110.2 117.37 129.51 117.37 132.52 123.95 113.22 123.95 110.2 117.37" fill="#EB5757"/><rect x="131.61" y="123.95" width="11.16" height="18.34" transform="translate(274.38 266.23) rotate(-180)" fill="#0d1019"/><polygon points="146.25 117.37 135.09 117.37 131.61 123.95 142.77 123.95 146.25 117.37" fill="#0d1019"/><polygon points="121.02 117.32 122.87 121.96 122.76 122.14 122.15 121.7 121.89 122.14 121.28 121.7 121.03 122.14 120.42 121.7 120.17 122.14 119.56 121.7 119.3 122.14 119.01 121.93 117.18 117.32 121.02 117.32" fill="#e2eaf2"/><polygon points="139.04 117.32 137.19 121.96 137.29 122.14 137.9 121.7 138.16 122.14 138.77 121.7 139.02 122.14 139.63 121.7 139.89 122.14 140.5 121.7 140.75 122.14 141.04 121.93 142.88 117.32 139.04 117.32" fill="#e2eaf2"/><path d="M188.43,143.17H64.7a1,1,0,0,1,0-2H188.43a1,1,0,0,1,0,2Z" fill="#e2eaf2"/></svg>