<svg id="Layer_1" data-name="Layer 1" xmlns="http://www.w3.org/2000/svg" viewBox="0 0 260 180"><title>Flat Web Illustrations Pack - Scene 47</title><path d="M80.12,48.28h80.45a10.94,10.94,0,0,1,10.94,10.94V92.58A10.55,10.55,0,0,1,161,103.13H79.73A10.55,10.55,0,0,1,69.18,92.58V59.22A10.94,10.94,0,0,1,80.12,48.28Z" fill="#e2eaf2"/><path d="M135.38,103.19v-47a1.57,1.57,0,0,0-1.57-1.57H106.88a1.57,1.57,0,0,0-1.57,1.57v47Z" fill="#fafafa"/><path d="M168.72,103.19v-47a1.57,1.57,0,0,0-1.57-1.57H140.22a1.57,1.57,0,0,0-1.57,1.57v47Z" fill="#fafafa"/><path d="M100.42,54.52H73.59A1.57,1.57,0,0,0,72,56.09V99.76a10.48,10.48,0,0,0,7.71,3.37H102v-47A1.57,1.57,0,0,0,100.42,54.52Z" fill="#fafafa"/><path d="M195.82,144.49H141.15a1,1,0,1,1,0-2h54.67a1,1,0,0,1,0,2Z" fill="#e2eaf2"/><rect x="108.04" y="73.02" width="27.07" height="9.84" rx="1.59" transform="translate(-6.11 10.48) rotate(-4.82)" fill="#EB5757"/><circle cx="112.19" cy="78.78" r="2.56" fill="#fafafa"/><path d="M125.43,76.59l-8.85.75a.79.79,0,0,1-.13-1.58L125.3,75a.79.79,0,0,1,.13,1.57Z" fill="#fafafa"/><path d="M132.18,79.31,116.86,80.6a.52.52,0,0,1-.57-.48.53.53,0,0,1,.48-.57l15.32-1.29a.53.53,0,0,1,.57.48A.52.52,0,0,1,132.18,79.31Z" fill="#fafafa"/><path d="M113.33,77.54l.19,2.27-.45,0-.13-1.47-.48,1.52-.35,0-.73-1.42L111.5,80l-.45,0-.19-2.26.51,0,.87,1.63.58-1.75Z" fill="#EB5757"/><rect x="73.47" y="55.75" width="27.07" height="9.84" rx="1.59" fill="#EB5757"/><path d="M91,59.6H82.08a.79.79,0,1,1,0-1.58H91a.79.79,0,1,1,0,1.58Z" fill="#fafafa"/><path d="M97.46,62.88H82.08a.53.53,0,0,1-.53-.53.52.52,0,0,1,.53-.52H97.46a.52.52,0,0,1,.52.52A.52.52,0,0,1,97.46,62.88Z" fill="#fafafa"/><circle cx="77.58" cy="60.67" r="2.56" fill="#fafafa"/><path d="M78.82,59.53v2.28h-.45V60.33l-.61,1.48h-.35l-.61-1.48v1.48h-.46V59.53h.52l.72,1.69.73-1.69Z" fill="#EB5757"/><rect x="73.47" y="67.43" width="27.07" height="9.84" rx="1.59" fill="#e2eaf2"/><path d="M91,71.29H82.08a.79.79,0,0,1,0-1.58H91a.79.79,0,0,1,0,1.58Z" fill="#fafafa"/><path d="M97.46,74.57H82.08a.53.53,0,1,1,0-1.06H97.46a.53.53,0,0,1,0,1.06Z" fill="#fafafa"/><circle cx="77.58" cy="72.35" r="2.56" fill="#EB5757"/><path d="M78.82,71.21v2.28h-.45V72l-.61,1.48h-.35L76.8,72v1.48h-.46V71.21h.52l.72,1.7.73-1.7Z" fill="#fafafa"/><rect x="73.47" y="79.12" width="27.07" height="9.84" rx="1.59" fill="#e2eaf2"/><path d="M91,83H82.08a.79.79,0,0,1,0-1.58H91A.79.79,0,0,1,91,83Z" fill="#fafafa"/><path d="M97.46,86.25H82.08a.53.53,0,0,1,0-1.06H97.46a.53.53,0,0,1,0,1.06Z" fill="#fafafa"/><circle cx="77.58" cy="84.04" r="2.56" fill="#fafafa"/><path d="M77.44,84.68h.75V85H77V82.77h.46Z" fill="#EB5757"/><rect x="106.72" y="55.75" width="27.07" height="9.84" rx="1.59" fill="#e2eaf2"/><path d="M124.21,59.6h-8.88a.79.79,0,1,1,0-1.58h8.88a.79.79,0,1,1,0,1.58Z" fill="#fafafa"/><path d="M130.71,62.88H115.33a.53.53,0,0,1-.53-.53.52.52,0,0,1,.53-.52h15.38a.52.52,0,0,1,.52.52A.52.52,0,0,1,130.71,62.88Z" fill="#fafafa"/><circle cx="110.83" cy="60.67" r="2.56" fill="#fafafa"/><path d="M110.68,61.44h.75v.37h-1.2V59.53h.45Z" fill="#EB5757"/><path d="M116.27,144.49H80.76s-9.54.53-10.21-3.68c-.41-2.56,2.45-3,5.11-6.1s-1.64-5.13-6.74-5.54-8.58-3.67-2-8.57,10.21-8,4.69-14.32S58.16,92.74,67.49,89.52c8.28-2.86,16.16,16,18.29,22.71s7,5.1,10.36-1.23,11.78-8.58,11.78,1.84S101.09,131,112.26,132s12.31,4,10.29,8.78C121,144.49,116.27,144.49,116.27,144.49Z" fill="#0d1019"/><circle cx="151.44" cy="66.2" r="2.98" fill="#0a0d16"/><path d="M163.15,78.05c-3.38.22-8,1.49-9.38,1.69s-2.09,2.93,1.17,2.74a23.54,23.54,0,0,0,7.29-1.29C163.84,80.52,164.91,77.94,163.15,78.05Z" fill="#eaa88e"/><path d="M161.46,78.62c-.94,2.09.76,2.57.77,2.57,1.69.13,7.53-2.31,9.43-2.76s1.63-2-1.11-1.73c-2.09.21-6,.72-7.79,1a1.67,1.67,0,0,0-1.29.93Z" fill="#eaa88e"/><path d="M171.91,78.36c1.36-.22,1.89.53,3,.33a1.66,1.66,0,0,0-1.15-.94c-.85-.18-.74-.64.59-.42s2.37.91,1.58-.4-2.33-.88-3.36-.57a8.05,8.05,0,0,1-2,.34S169,78,171.91,78.36Z" fill="#eaa88e"/><path d="M143.57,66.18c-.79,1.29-2.61.92-3,2.26a2.92,2.92,0,0,0,.79,3c.83.78,1.34,1.86,2.12,2.73A47.89,47.89,0,0,0,147.28,78a5.23,5.23,0,0,0,3.42,1.39c3.18,0,4.3-2.61,4.16-5.64s.43-4.73-2-6.49-3.11-.64-4.73-1.77A3.57,3.57,0,0,0,143.57,66.18Z" fill="#0a0d16"/><path d="M150,81.53s.68.9-1.16,1.45-2.41-.27-2.41-.27l-.53-2.87c-3.31,1.5-5.8-.85-5.32-4.25a14.15,14.15,0,0,1,1-4.12,2.39,2.39,0,0,0,3.46.76c1-.76,1.82-.31,1.41.36s-.46,2.87,2.14,2.46c0,0,.09-1.45,1.18-1.19a1.12,1.12,0,0,1-.44,2.14C148.16,76,150,81.53,150,81.53Z" fill="#eaa88e"/><path d="M144.76,84.77c1.29.86.72,2.92-2.72,5.86s-5.26,4-6.68,3.85-1.38-2.29,2.37-5.24S143.52,83.67,144.76,84.77Z" fill="#eaa88e"/><path d="M129.61,85.51c.34-1.44,1.81-.53,2.35.22s4.37,5,4.37,5,2.34,2.84.2,3.62-2.95-1.23-4.08-3.57S129.61,85.51,129.61,85.51Z" fill="#eaa88e"/><path d="M128.93,82.69c.78-.47,1.09-.37,1.65.85a10.71,10.71,0,0,0,.91,1.71,1.4,1.4,0,0,1-1.64.42l-3-1.13a1.57,1.57,0,0,1,1.69-.28A20.44,20.44,0,0,1,127,82.11c-.55-1,0-1.12.74-.18S128.93,82.69,128.93,82.69Z" fill="#eaa88e"/><path d="M155.57,143.07h8a5.13,5.13,0,0,0-.59-2.76l.61-13.15H161v13a4.46,4.46,0,0,1-3.16,1.68A2.11,2.11,0,0,0,155.57,143.07Z" fill="#eaa88e"/><path d="M155.57,101.86a61.28,61.28,0,0,0,1.79,12.39c1.38,4.74,2.56,18.32,2.56,18.32a4.24,4.24,0,0,0,4.15,0s.47-10.68.6-15.09.66-14.23.66-14.23a5,5,0,0,0-3.17-6C157.81,95.54,155.57,101.86,155.57,101.86Z" fill="#0d1019"/><path d="M160.52,92.24c3.55-.92,4.77.27,10.65,1.32s9.71-.26,11.68,1.06,3.43,3.68-3.95,4.87a105.45,105.45,0,0,1-14.83,1.61c-3.62.1-7.82-2.63-5.68-5.74Z" fill="#0d1019"/><path d="M180.27,83.54c-2.1-4.61-4.36-11.67-4.36-11.67s-1.46,0-.72,2.75-1.13,2.48.13,4.32l1,1.07,2.08,6.39Z" fill="#eaa88e"/><path d="M180.64,95.36a29.78,29.78,0,0,1-2.88-5.86,25.7,25.7,0,0,1-.9-6.34l3.33-1.2s4.7,8.18,5.17,12.26c.19,1.72.07,2.52-1.3,3.41Z" fill="#0d1019"/><path d="M146.11,81.29A3.14,3.14,0,0,0,149.62,80l.31.7a8.29,8.29,0,0,1,2.74-1,40.13,40.13,0,0,1,4-.79l0,3.62a7.49,7.49,0,0,0-.53,4.69c.53,2.75,3.22,4.46,6.05,4.69a20.91,20.91,0,0,1-3.1,7.53c-2.55,3.84-3.08,3.78-3.08,3.78l-7.64-7.89A7.79,7.79,0,0,1,144.12,90l-3-3.55a12.7,12.7,0,0,1,5.2-4.11Z" fill="#EB5757"/><circle cx="175.42" cy="46.98" r="11.49" fill="#e2eaf2"/><circle cx="175.42" cy="46.6" r="7.59" fill="#0d1019"/><path d="M176.47,50a1.06,1.06,0,1,1-2.11,0Z" fill="#fafafa"/><path d="M172.33,49.07h6.17l-.36-.82a1.14,1.14,0,0,1,0-.87,3.79,3.79,0,0,0,.19-1.18,3.2,3.2,0,0,0-2.43-3.26v-.62a.45.45,0,0,0-.9,0v.62a3.19,3.19,0,0,0-2.43,3.26,3.79,3.79,0,0,0,.19,1.18,1.19,1.19,0,0,1,0,.87Z" fill="#fafafa"/><circle cx="180.07" cy="39.04" r="2.94" fill="#EB5757"/><path d="M178.72,38.16a.73.73,0,0,1,.48-.15.74.74,0,0,1,.34.07.48.48,0,0,1,.21.19.46.46,0,0,1,.08.27.48.48,0,0,1-.09.29.44.44,0,0,1-.22.16h0a.45.45,0,0,1,.25.17.58.58,0,0,1,.09.33.57.57,0,0,1-.07.29.5.5,0,0,1-.23.2.73.73,0,0,1-.35.07.8.8,0,0,1-.5-.15.61.61,0,0,1-.21-.46h.37a.3.3,0,0,0,.1.21.28.28,0,0,0,.23.08.29.29,0,0,0,.22-.07.3.3,0,0,0,.07-.21.25.25,0,0,0-.1-.23.56.56,0,0,0-.32-.07H179v-.32h.08c.26,0,.39-.08.39-.26a.25.25,0,0,0-.07-.18.28.28,0,0,0-.21-.07.27.27,0,0,0-.19.07.31.31,0,0,0-.09.18h-.37A.56.56,0,0,1,178.72,38.16Z" fill="#fafafa"/><path d="M181.64,39.24h-.52v.53h-.36v-.53h-.52v-.33h.52v-.53h.36v.53h.52Z" fill="#fafafa"/></svg>