<svg id="Layer_1" data-name="Layer 1" xmlns="http://www.w3.org/2000/svg" viewBox="0 0 260 180"><title>Flat Web Illustrations Pack - Scene 34</title><path d="M175.84,128.83c-30.89,5.07-84.21,3.56-61.3-43.19,0,0,17.15-29.11,21.77-25.4a95.66,95.66,0,0,1,9.24,8.8A129.11,129.11,0,0,1,159,51.21c8.79-10,11.56-6.18,21.26,7.24a163.09,163.09,0,0,1,15.68,27.3C205,98.9,206.72,123.76,175.84,128.83Z" fill="#e2eaf2"/><circle cx="132.95" cy="48.34" r="5.36" fill="#e2eaf2"/><rect x="117.48" y="52.36" width="33.91" height="61.83" rx="2.74" transform="translate(50.98 217.59) rotate(-89.92)" fill="#fafafa"/><path d="M101.87,69.23l0,28a3.69,3.69,0,0,0,3.7,3.71l57.55.08a3.71,3.71,0,0,0,3.71-3.7l0-28a3.72,3.72,0,0,0-3.7-3.71l-57.55-.07A3.71,3.71,0,0,0,101.87,69.23Zm60.12-2a3.38,3.38,0,0,1,3.37,3.38l0,25.47A3.39,3.39,0,0,1,162,99.43l-54.78-.08A3.36,3.36,0,0,1,103.81,96V92.83l1.64-1.22A3.27,3.27,0,0,0,106.77,89l0-12a3.29,3.29,0,0,0-1.31-2.62l-1.64-1.23V70.5a3.37,3.37,0,0,1,3.38-3.36Z" fill="#EB5757"/><circle cx="107.49" cy="70.72" r="1.4" fill="#EB5757"/><rect x="105.36" y="93.9" width="4.19" height="2.79" transform="translate(12.02 202.63) rotate(-89.92)" fill="#EB5757"/><circle cx="158.1" cy="83.3" r="3.61" fill="#EB5757"/><path d="M121.18,91.05l26.3,0a53.14,53.14,0,0,0-5.07-8.82c-3.13-4.34-4-5.56-6.87-2.34a41.84,41.84,0,0,0-4.34,5.76,32,32,0,0,0-3-2.84C126.72,81.64,121.18,91.05,121.18,91.05Z" fill="#EB5757"/><circle cx="127.02" cy="78.09" r="2.6" fill="#EB5757"/><rect x="155.79" y="70.72" width="4.62" height="4.62" fill="#e2eaf2"/><path d="M174.85,136.27l-.45-9.35s-2.32.35-7.94-4.54-17.8-14.62-17.8-14.62a8.68,8.68,0,0,1,7.41-1.76c4.5,1,8.91,5,8.91,5s-3-9.93-5.76-17.77-4.1-12.23-1.35-13.53,6.51,8.83,7.83,11.82,4.15,8.47,4.15,8.47,1.11.49.73-1-2.78-6-1.38-7.83,4.13-1.75,5.28,1.16,1.85,4.32,2.2,5.07,1,.56.58-.83-2-4.43-1.63-6.33,3.69-2.9,5.09.15a43.6,43.6,0,0,0,2.34,4.89c.5.76,1,.65.51-.65s-2-3.42,0-4.21,2.65.26,4.61,3.84,3.16,5.71,4.74,9.22.91,12.61,1.65,15.08,5.52,11,5.52,11S190.87,139.81,174.85,136.27Z" fill="#eaa88e"/><path d="M97.48,66.37c4.32-7.7,6.24-11.77,5.84-15.27s-1.62-4.84-3.37-2a59.53,59.53,0,0,0-3,5.77L88.15,72.2Z" fill="#d78a69"/><path d="M83.05,73.38c5.06-11.95,7.62-17.23,9.1-20.58s3.63-2.51,4.21-.2-.7,7.26-.7,7.26L90.18,72.11Z" fill="#d78a69"/><path d="M79,75.35c4-9.46,5-12.18,6.29-15s3.15-4.88,3.56-.17-5.6,16.48-5.6,16.48Z" fill="#d78a69"/><path d="M58.32,125.16s10.47-21.35,15.05-33.51S77.49,74.82,82.05,72s10.12-8.91,15.75-8.71,18.55.76,18.55.76a5,5,0,0,1,.19,4c-.84,2.15-4.56,2.79-9.71,2.8s-8.92-.28-8.92-.28l-7.55,8.79s-3.24,5.78-2.1,9.94,2.48,7.85,5.31,8.42,14.53,0,14.53,0,7-1.74,9.37,4.94a9.35,9.35,0,0,1-3.68,1.35c-2.79.6-26.71,9.93-26.71,9.93l-4.3,18S68.55,138.27,58.32,125.16Z" fill="#eaa88e"/></svg>